<svg width="194" height="49" viewBox="0 0 194 49" fill="none" xmlns="http://www.w3.org/2000/svg">
<path d="M33.5398 42.2784V39.9716H34.8125C35.303 39.9716 35.714 39.8755 36.0455 39.6832C36.3835 39.491 36.6619 39.2424 36.8807 38.9375C37.1061 38.6326 37.2917 38.3144 37.4375 37.983L37.7557 37.2273L30.7159 21.6364H33.3807L38.9886 34.2841L44.1193 21.6364H46.7443L39.7045 38.6989C39.4261 39.3352 39.108 39.9252 38.75 40.4688C38.3987 41.0123 37.9181 41.4498 37.3082 41.7812C36.705 42.1127 35.8864 42.2784 34.8523 42.2784H33.5398ZM58.6488 42H56.0636L63.5408 21.6364H66.0863L73.5636 42H70.9783L64.8931 24.858H64.734L58.6488 42ZM59.6033 34.0455H70.0238V36.233H59.6033V34.0455ZM76.7354 21.6364H79.2013V39.733H86.3604V21.6364H88.8263V39.733H95.9854V21.6364H98.4513V42H76.7354V21.6364ZM104.231 42H101.646L109.123 21.6364H111.668L119.146 42H116.56L110.475 24.858H110.316L104.231 42ZM105.185 34.0455H115.606V36.233H105.185V34.0455ZM118.825 23.8239V21.6364H134.098V23.8239H127.694V42H125.228V23.8239H118.825ZM137.903 21.6364H140.33V37.6648H140.528L151.665 21.6364H154.051V42H151.585V26.0114H151.386L140.29 42H137.903V21.6364ZM170.957 42L163.957 32.6534H161.451V42H158.985V21.6364H161.451V30.4659H162.525L170.679 21.6364H173.622L165.389 30.5852L173.9 42H170.957ZM177.922 42H175.337L182.814 21.6364H185.36L192.837 42H190.252L184.167 24.858H184.007L177.922 42ZM178.877 34.0455H189.297V36.233H178.877V34.0455Z" fill="white"/>
<path d="M19 11.25V10.225C19 9.54167 18.8 7.97 18 7.15C17.2 6.33 16.3333 6.125 16 6.125M19 11.25L17.5 12.275M19 11.25V27.65M1 11.25V12.275V27.65M1 11.25L3.42304 12.9057M1 11.25C1 9.88957 1.39636 7.17491 2.97817 7.15017M16 6.125L16.3529 5.40147C16.7123 4.66468 16.4161 3.77576 15.6866 3.40186L15.477 3.29448C15.1775 3.14099 14.8225 3.14099 14.523 3.29448C13.827 3.65118 12.9513 3.12029 12.5751 2.43464C12.1553 1.66953 11.3716 1 10 1C8.15587 1 6.98088 1.40345 6.3843 1.74535C6.11206 1.90137 5.84556 2.07777 5.54863 2.17922C5.12271 2.32474 4.3433 2.59104 3 3.05C0.611905 3.86593 1.9862 6.10266 2.98509 7.13466C2.99075 7.14051 2.98631 7.15004 2.97817 7.15017M16 6.125L15 9.2M15 9.2L17.5 12.275M15 9.2C14.3333 9.2 12.8 9.405 12 10.225M17.5 12.275L12.1885 15.9045M12 10.225C11.3406 10.9009 11.0888 12.0874 11.0207 12.8663C10.9957 13.1517 11.0616 13.4349 11.1805 13.6955L12.1885 15.9045M12 10.225C11.7419 9.43145 11.0443 8.02355 10 7.42818M12.1885 15.9045L11.1284 16.6289C10.448 17.0939 9.55203 17.0939 8.87162 16.6289L7.10761 15.4235M3.42304 12.9057L7.10761 15.4235M3.42304 12.9057C3.33548 12.3509 3.50199 11.5306 4.40685 11.1847M7.10761 15.4235C8.40507 14.374 10.2 12.07 7 11.25C6.63227 11.1558 6.29996 11.0933 6 11.0578M4.40685 11.1847L2.97817 7.15017M4.40685 11.1847C4.79182 11.0375 5.31044 10.9762 6 11.0578M2.97817 7.15017C2.98545 6.80845 3.4 6.125 5 6.125C6.24596 6.125 6.35995 8.11921 6.19198 9.77821M6 11.0578C6.07376 10.694 6.14425 10.2496 6.19198 9.77821M6.19198 9.77821C6.3993 9.10388 7.00319 7.91048 8 7.39663C8.11594 7.33686 8.23719 7.28629 8.36375 7.2468M10 7.42818C9.6954 7.25453 9.3613 7.15 9 7.15C8.77481 7.15 8.56272 7.18471 8.36375 7.2468M10 7.42818L11 4.075M8.36375 7.2468L7 4.075M19 27.65C17.6667 25.6 14.6 21.295 13 20.475M19 27.65V35.85M1 27.65V40C1 41.1046 1.89543 42 3 42H17C18.1046 42 19 41.1046 19 40V35.85M1 27.65C5.33333 29.0167 15 32.57 19 35.85" stroke="white" stroke-width="2" stroke-linecap="round"/>
</svg>
